<svg width="96" height="96" viewBox="0 0 96 96" fill="none" xmlns="http://www.w3.org/2000/svg">
<path fill-rule="evenodd" clip-rule="evenodd" d="M87.8742 11.7745L86 68H83.3137C81.6787 68 80.8612 68 80.1261 67.6955C79.391 67.391 78.813 66.813 77.6569 65.6568L66.8284 54.8284C65.4951 53.4951 64.8284 52.8284 64 52.8284C63.1716 52.8284 62.5049 53.4951 61.1716 54.8284L51.4142 64.5858C49.9612 66.0388 49.2346 66.7653 48.6173 66.5096C48 66.2539 48 65.2265 48 63.1716V88H80C83.7712 88 85.6569 88 86.8284 86.8284C88 85.6568 88 83.7712 88 80V16C88 14.2074 88 12.8409 87.8742 11.7745ZM45.4621 48C44.4072 47.6407 42.936 47.4936 40.796 47.2796L15.204 44.7204C11.7802 44.378 10.0684 44.2068 9.03419 43.0641C8 41.9213 8 40.2009 8 36.7601V48H45.4621Z" fill="#212529"/>
<path d="M10 16C10 14.0578 10.0042 12.8024 10.1286 11.8774C10.2452 11.0099 10.4335 10.738 10.5858 10.5858C10.738 10.4335 11.0099 10.2452 11.8774 10.1286C12.8024 10.0042 14.0578 10 16 10H80C81.9421 10 83.1976 10.0042 84.1226 10.1286C84.9901 10.2452 85.262 10.4335 85.4142 10.5858C85.5665 10.738 85.7548 11.0099 85.8714 11.8774C85.9957 12.8024 86 14.0578 86 16V80C86 81.9421 85.9957 83.1976 85.8714 84.1226C85.7548 84.9901 85.5665 85.262 85.4142 85.4142C85.262 85.5665 84.9901 85.7548 84.1226 85.8714C83.1976 85.9957 81.9421 86 80 86H50V50C50 49.9741 50 49.9479 50 49.9213C50.0003 49.5215 50.0006 49.0456 49.9455 48.6362C49.8791 48.1421 49.7013 47.4587 49.1213 46.8787C48.5413 46.2987 47.8579 46.1209 47.3638 46.0544C46.9544 45.9994 46.4785 45.9997 46.0787 46C46.0521 46 46.0259 46 46 46H10V16Z" stroke="#212529" stroke-width="4"/>
<circle cx="64" cy="32" r="8" fill="#212529"/>
<path d="M32 64V62H34V64H32ZM13.2494 81.5617C12.3869 82.2518 11.1283 82.1119 10.4383 81.2494C9.74825 80.3869 9.88809 79.1283 10.7506 78.4383L13.2494 81.5617ZM30 84V64H34V84H30ZM32 66H12V62H32V66ZM33.2494 65.5617L13.2494 81.5617L10.7506 78.4383L30.7506 62.4383L33.2494 65.5617Z" fill="#212529"/>
</svg>
