<svg width="96" height="96" viewBox="0 0 96 96" fill="none" xmlns="http://www.w3.org/2000/svg">
<circle cx="48" cy="48" r="6" stroke="#212529" stroke-width="4"/>
<path d="M73.7602 47.376C73.8768 47.6608 73.9351 47.8032 73.9351 48C73.9351 48.1968 73.8768 48.3392 73.7602 48.624C72.4609 51.7979 65.6606 66 48 66C30.3394 66 23.5391 51.7979 22.2398 48.624C22.1232 48.3392 22.0649 48.1968 22.0649 48C22.0649 47.8032 22.1232 47.6608 22.2398 47.376C23.5391 44.2021 30.3394 30 48 30C65.6606 30 72.4609 44.2021 73.7602 47.376Z" stroke="#212529" stroke-width="4"/>
<path d="M70.2222 12H84.2C85.9913 12 86.887 12 87.4435 12.5565C88 13.113 88 14.0087 88 15.8V29.7778M70.2222 83.1111H84.2C85.9913 83.1111 86.887 83.1111 87.4435 82.5546C88 81.9981 88 81.1025 88 79.3111V65.3333M25.7778 12H11.8C10.0087 12 9.11299 12 8.5565 12.5565C8 13.113 8 14.0087 8 15.8V29.7778M25.7778 83.1111H11.8C10.0087 83.1111 9.11299 83.1111 8.5565 82.5546C8 81.9981 8 81.1025 8 79.3111V65.3333" stroke="#212529" stroke-width="4" stroke-linecap="round"/>
</svg>
