<svg width="128" height="128" viewBox="0 0 128 128" fill="none" xmlns="http://www.w3.org/2000/svg">
<rect width="128" height="128" rx="16" fill="#212529"/>
<rect x="56" y="56" width="64" height="64" rx="16" fill="#0A58CA"/>
<rect x="80" y="16" width="32" height="32" rx="16" fill="#0D6EFD"/>
<path d="M76.9432 49.2614C76.6705 46.5114 75.5 44.375 73.4318 42.8523C71.3636 41.3295 68.5568 40.5682 65.0114 40.5682C62.6023 40.5682 60.5682 40.9091 58.9091 41.5909C57.25 42.25 55.9773 43.1705 55.0909 44.3523C54.2273 45.5341 53.7955 46.875 53.7955 48.375C53.75 49.625 54.0114 50.7159 54.5795 51.6477C55.1705 52.5795 55.9773 53.3864 57 54.0682C58.0227 54.7273 59.2045 55.3068 60.5455 55.8068C61.8864 56.2841 63.3182 56.6932 64.8409 57.0341L71.1136 58.5341C74.1591 59.2159 76.9545 60.125 79.5 61.2614C82.0455 62.3977 84.25 63.7955 86.1136 65.4545C87.9773 67.1136 89.4205 69.0682 90.4432 71.3182C91.4886 73.5682 92.0227 76.1477 92.0455 79.0568C92.0227 83.3295 90.9318 87.0341 88.7727 90.1705C86.6364 93.2841 83.5455 95.7045 79.5 97.4318C75.4773 99.1364 70.625 99.9886 64.9432 99.9886C59.3068 99.9886 54.3977 99.125 50.2159 97.3977C46.0568 95.6705 42.8068 93.1136 40.4659 89.7273C38.1477 86.3182 36.9318 82.1023 36.8182 77.0795H51.1023C51.2614 79.4205 51.9318 81.375 53.1136 82.9432C54.3182 84.4886 55.9205 85.6591 57.9205 86.4545C59.9432 87.2273 62.2273 87.6136 64.7727 87.6136C67.2727 87.6136 69.4432 87.25 71.2841 86.5227C73.1477 85.7955 74.5909 84.7841 75.6136 83.4886C76.6364 82.1932 77.1477 80.7045 77.1477 79.0227C77.1477 77.4545 76.6818 76.1364 75.75 75.0682C74.8409 74 73.5 73.0909 71.7273 72.3409C69.9773 71.5909 67.8295 70.9091 65.2841 70.2955L57.6818 68.3864C51.7955 66.9545 47.1477 64.7159 43.7386 61.6705C40.3295 58.625 38.6364 54.5227 38.6591 49.3636C38.6364 45.1364 39.7614 41.4432 42.0341 38.2841C44.3295 35.125 47.4773 32.6591 51.4773 30.8864C55.4773 29.1136 60.0227 28.2273 65.1136 28.2273C70.2955 28.2273 74.8182 29.1136 78.6818 30.8864C82.5682 32.6591 85.5909 35.125 87.75 38.2841C89.9091 41.4432 91.0227 45.1023 91.0909 49.2614H76.9432Z" fill="white"/>
<rect x="16" y="80" width="32" height="32" rx="16" fill="#0D6EFD"/>
</svg>
