<?xml version="1.0" standalone="no"?>
<!DOCTYPE svg PUBLIC "-//W3C//DTD SVG 20010904//EN"
 "http://www.w3.org/TR/2001/REC-SVG-20010904/DTD/svg10.dtd">
<svg version="1.0" xmlns="http://www.w3.org/2000/svg"
 width="512.000000pt" height="512.000000pt" viewBox="0 0 512.000000 512.000000"
 preserveAspectRatio="xMidYMid meet">
<metadata>
Created by potrace 1.14, written by Peter Selinger 2001-2017
</metadata>
<g transform="translate(0.000000,512.000000) scale(0.100000,-0.100000)"
fill="#000000" stroke="none">
<path d="M482 5100 c-227 -60 -404 -238 -462 -466 -20 -76 -20 -119 -20 -2074
0 -1955 0 -1998 20 -2074 59 -230 236 -407 466 -466 76 -20 119 -20 2074 -20
1955 0 1998 0 2074 20 230 59 407 236 466 466 20 76 20 119 20 2074 0 1955 0
1998 -20 2074 -59 230 -236 407 -466 466 -76 20 -118 20 -2078 19 -1936 0
-2003 -1 -2074 -19z m2438 -1138 c426 -100 688 -373 723 -754 l6 -58 -288 0
-288 0 -6 45 c-19 133 -145 251 -305 284 -69 14 -256 14 -324 0 -117 -25 -207
-86 -252 -170 -24 -44 -29 -65 -30 -123 0 -177 118 -267 465 -351 325 -79 375
-93 485 -135 379 -142 574 -395 574 -744 0 -427 -270 -713 -766 -813 -130 -26
-489 -25 -629 1 -408 76 -667 279 -768 601 -25 78 -47 206 -47 266 l0 29 287
-2 286 -3 13 -64 c36 -175 164 -295 359 -336 88 -19 260 -19 346 -1 125 27
236 98 286 184 38 65 45 182 14 246 -59 121 -165 171 -599 280 -289 73 -368
99 -487 159 -268 134 -393 296 -425 551 -13 106 -1 239 31 336 100 307 399
526 804 589 104 17 437 6 535 -17z"/>
</g>
</svg>
