<svg width="96" height="96" viewBox="0 0 96 96" fill="none" xmlns="http://www.w3.org/2000/svg">
<circle cx="29.1281" cy="53.7965" r="7.4243" transform="rotate(27.8619 29.1281 53.7965)" fill="#212529"/>
<circle cx="32.2215" cy="32.1422" r="7.4243" transform="rotate(27.8619 32.2215 32.1422)" fill="#212529"/>
<circle cx="53.257" cy="29.049" r="7.4243" transform="rotate(27.8619 53.257 29.049)" fill="#212529"/>
<path d="M88 48C88 63.75 78.67 60.925 70.165 58.35C65.1 56.815 60.325 55.365 58 58C54.985 61.415 55.625 67.095 56.245 72.6C57.13 80.475 57.98 88 48 88C40.0888 88 32.3552 85.6541 25.7772 81.2588C19.1992 76.8635 14.0723 70.6164 11.0448 63.3074C8.01733 55.9983 7.2252 47.9556 8.76861 40.1964C10.312 32.4372 14.1216 25.3098 19.7157 19.7157C25.3098 14.1216 32.4372 10.312 40.1964 8.76861C47.9556 7.2252 55.9983 8.01733 63.3074 11.0448C70.6164 14.0723 76.8635 19.1992 81.2588 25.7772C85.6541 32.3552 88 40.0888 88 48V48ZM48 83C51.055 83 51.27 82.145 51.275 82.12C51.665 81.39 51.895 79.8 51.625 76.525C51.555 75.685 51.44 74.675 51.32 73.57C51.06 71.25 50.76 68.545 50.73 66.26C50.68 62.725 51.145 58.21 54.25 54.69C56.095 52.605 58.475 51.8 60.61 51.6C62.63 51.41 64.67 51.73 66.41 52.12C68.125 52.505 69.92 53.05 71.535 53.54L71.675 53.58C73.405 54.105 74.965 54.575 76.44 54.91C79.705 55.65 80.96 55.325 81.395 55.03C81.585 54.9 83 53.805 83 48C83 41.0777 80.9473 34.3108 77.1015 28.5551C73.2556 22.7993 67.7894 18.3133 61.3939 15.6642C54.9985 13.0152 47.9612 12.3221 41.1719 13.6725C34.3825 15.023 28.1461 18.3564 23.2513 23.2513C18.3564 28.1461 15.023 34.3825 13.6725 41.1719C12.3221 47.9612 13.0152 54.9985 15.6642 61.3939C18.3133 67.7894 22.7993 73.2556 28.5551 77.1015C34.3108 80.9473 41.0777 83 48 83V83Z" fill="#212529"/>
<g clip-path="url(#clip0_23_1034)">
<path d="M28.6467 86.5471C26.465 86.317 24.0136 85.5895 22.6168 84.6605L22.0943 84.3202L20.8522 83.5113L22.0673 82.6624L23.0824 81.9534C23.0827 81.9531 23.083 81.9529 23.0833 81.9527C24.3786 81.0432 26.0693 79.2782 26.8123 78.0803L26.8128 78.0795C27.5326 76.9213 28.0285 75.764 28.6756 73.5939L28.6766 73.5905C29.0285 72.4257 29.2917 71.6306 29.6313 70.9874C29.9904 70.3073 30.4128 69.8363 30.9907 69.2714C32.0352 68.2404 32.9401 67.6663 34.1493 67.3414C36.3807 66.7322 38.9439 67.5322 40.7651 69.2422C43.462 71.7556 43.8924 75.6998 42.102 79.2416C40.8855 81.6614 38.3847 84.1014 35.9032 85.3552L35.9032 85.3553L35.8969 85.3584C33.8831 86.3582 31.1171 86.8099 28.6467 86.5471Z" fill="#212529" stroke="white" stroke-width="2"/>
<path d="M44.4288 58.3397L44.4404 58.3341L44.4521 58.3289C44.457 58.3267 44.462 58.3245 44.4671 58.3222C44.6583 58.2367 45.0193 58.0753 45.464 58.1075C45.9229 58.1408 46.307 58.3607 46.641 58.6061C47.2849 59.0789 48.2609 60.0533 49.9762 61.7683L49.9775 61.7696L50.0522 61.8446C51.6086 63.4068 52.4436 64.2449 52.879 64.7499C53.0976 65.0034 53.2894 65.2545 53.4063 65.5315C53.5399 65.8479 53.5396 66.117 53.5395 66.2602C53.5395 66.2644 53.5395 66.2686 53.5395 66.2726C53.5395 66.5034 53.5254 66.8288 53.3481 67.195C53.1883 67.5251 52.9351 67.8075 52.6374 68.0857C52.0503 68.6342 50.9695 69.4502 49.0471 70.883C47.354 72.1512 46.3678 72.8851 45.7182 73.2277C45.3742 73.4091 44.9962 73.5539 44.5728 73.5391C44.1558 73.5246 43.8325 73.3548 43.6509 73.2594L43.6476 73.2577L43.6476 73.2577L43.6422 73.2548C43.5234 73.1915 43.4159 73.1043 43.37 73.0671L43.3692 73.0665C43.3009 73.0111 43.2228 72.9438 43.1396 72.8701C42.972 72.7215 42.7593 72.5247 42.5181 72.296C42.0345 71.8376 41.4178 71.2332 40.7814 70.5904C40.7811 70.5901 40.7808 70.5898 40.7805 70.5895L38.4795 68.2764L38.1885 67.9838V67.5711V67.0201C38.1885 66.8353 38.1982 66.5974 38.3002 66.3024C38.3901 66.0422 38.5357 65.7842 38.7214 65.4977C39.0901 64.9291 39.7796 64.0079 41.0343 62.3412C41.9963 61.0542 42.6932 60.1483 43.1889 59.5436C43.4359 59.2423 43.6445 59.0016 43.8183 58.8212C43.9588 58.6755 44.1753 58.4606 44.4288 58.3397Z" fill="#212529" stroke="white" stroke-width="2"/>
<path d="M81.9111 25.5755L81.9111 25.5755L81.9194 25.5732C82.4504 25.4289 83.0377 25.3678 83.5624 25.3805C84.0405 25.3921 84.6493 25.468 85.1038 25.7457L85.1042 25.7459C85.9124 26.2403 86.3053 27.041 86.3546 27.9618C86.4009 28.8269 86.1514 29.8167 85.7166 30.8828C84.8419 33.027 83.0588 35.8522 80.4327 39.3395L80.4321 39.3403C75.9108 45.3313 67.1673 55.0687 59.6496 62.4884C58.5807 63.5512 57.9263 64.188 57.4632 64.5813C56.9633 65.0059 56.626 65.1988 56.1936 65.346L56.1862 65.3485L56.1788 65.3509C55.1124 65.6955 54.1504 65.5914 53.189 65.012C52.9976 64.8978 52.7645 64.7034 52.5542 64.5195C52.3196 64.3143 52.0381 64.0545 51.7305 63.7619C51.1141 63.1757 50.371 62.4375 49.6473 61.6976C48.9237 60.9578 48.2127 60.2093 47.6611 59.6021C47.386 59.2993 47.1445 59.025 46.959 58.8011C46.8666 58.6896 46.7819 58.5831 46.7116 58.4874C46.6534 58.4082 46.5631 58.2808 46.4993 58.1424L46.4993 58.1424L46.4973 58.1381C46.0585 57.1747 46.0629 56.0841 46.4767 55.1232L46.4766 55.1231L46.4824 55.1103C46.5702 54.914 46.7156 54.7178 46.8296 54.5721C46.9618 54.403 47.1299 54.2054 47.3244 53.9868C47.7147 53.5481 48.2422 52.9906 48.872 52.3463C50.1335 51.0558 51.8336 49.3891 53.7319 47.5753C57.5278 43.9483 62.141 39.7096 65.6679 36.6813C69.2919 33.5678 72.5243 31.0324 75.2459 29.1621C77.9419 27.3094 80.2178 26.0516 81.9111 25.5755Z" fill="#212529" stroke="white" stroke-width="2"/>
</g>
<defs>
<clipPath id="clip0_23_1034">
<rect width="64" height="64" fill="white" transform="translate(22 24)"/>
</clipPath>
</defs>
</svg>
