<svg width="24" height="24" viewBox="0 0 24 24" fill="none" xmlns="http://www.w3.org/2000/svg">
<g clip-path="url(#clip0_267_480)">
<path d="M12 2.41531e-06C9.20205 -0.00177203 6.49143 0.974216 4.33682 2.75921C2.18221 4.54421 0.719068 7.02599 0.200387 9.77545C-0.318295 12.5249 0.140088 15.3692 1.49628 17.8165C2.85247 20.2638 5.02121 22.1603 7.6275 23.178C7.5225 22.2285 7.4265 20.769 7.668 19.7325C7.887 18.795 9.075 13.767 9.075 13.767C9.075 13.767 8.7165 13.0485 8.7165 11.9865C8.7165 10.317 9.684 9.072 10.8885 9.072C11.9115 9.072 12.4065 9.84 12.4065 10.7625C12.4065 11.7915 11.751 13.3305 11.412 14.757C11.13 15.951 12.012 16.926 13.1895 16.926C15.3225 16.926 16.962 14.676 16.962 11.43C16.962 8.5575 14.8965 6.549 11.949 6.549C8.535 6.549 6.531 9.1095 6.531 11.7555C6.531 12.7875 6.9285 13.893 7.4235 14.4945C7.46613 14.5398 7.49627 14.5955 7.511 14.6559C7.52572 14.7164 7.52452 14.7796 7.5075 14.8395C7.416 15.2175 7.2135 16.0335 7.1745 16.2C7.122 16.419 7.0005 16.4655 6.7725 16.3605C5.2725 15.663 4.3365 13.4715 4.3365 11.7105C4.3365 7.926 7.0875 4.4505 12.2655 4.4505C16.428 4.4505 19.6635 7.416 19.6635 11.3805C19.6635 15.516 17.055 18.8445 13.437 18.8445C12.2205 18.8445 11.0775 18.213 10.686 17.466L9.939 20.319C9.6675 21.3615 8.9355 22.668 8.4465 23.4645C10.0965 23.9747 11.8371 24.1227 13.5495 23.8984C15.2619 23.6741 16.9057 23.0829 18.3687 22.1651C19.8316 21.2472 21.0792 20.0244 22.0262 18.5802C22.9732 17.136 23.5974 15.5044 23.856 13.7968C24.1146 12.0893 24.0015 10.346 23.5246 8.68613C23.0477 7.02626 22.2181 5.4889 21.0925 4.17906C19.9669 2.86921 18.5719 1.81776 17.0027 1.09652C15.4334 0.375287 13.727 0.00126345 12 2.41531e-06Z" fill="#CED4DA"/>
</g>
<defs>
<clipPath id="clip0_267_480">
<rect width="24" height="24" fill="white"/>
</clipPath>
</defs>
</svg>
