<svg width="24" height="56" viewBox="0 0 24 56" fill="none" xmlns="http://www.w3.org/2000/svg">
<g opacity="0.66">
<path fill-rule="evenodd" clip-rule="evenodd" d="M5.64598 44.646C5.69242 44.5994 5.7476 44.5625 5.80834 44.5373C5.86909 44.5121 5.93421 44.4991 5.99998 44.4991C6.06575 44.4991 6.13087 44.5121 6.19161 44.5373C6.25236 44.5625 6.30753 44.5994 6.35398 44.646L12 50.293L17.646 44.646C17.6925 44.5995 17.7477 44.5626 17.8084 44.5375C17.8691 44.5123 17.9342 44.4993 18 44.4993C18.0657 44.4993 18.1308 44.5123 18.1916 44.5375C18.2523 44.5626 18.3075 44.5995 18.354 44.646C18.4005 44.6925 18.4373 44.7477 18.4625 44.8084C18.4877 44.8691 18.5006 44.9342 18.5006 45C18.5006 45.0657 18.4877 45.1308 18.4625 45.1916C18.4373 45.2523 18.4005 45.3075 18.354 45.354L12.354 51.354C12.3075 51.4005 12.2524 51.4375 12.1916 51.4627C12.1309 51.4879 12.0657 51.5009 12 51.5009C11.9342 51.5009 11.8691 51.4879 11.8083 51.4627C11.7476 51.4375 11.6924 51.4005 11.646 51.354L5.64598 45.354C5.59942 45.3075 5.56247 45.2524 5.53727 45.1916C5.51206 45.1309 5.49908 45.0657 5.49908 45C5.49908 44.9342 5.51206 44.8691 5.53727 44.8083C5.56247 44.7476 5.59942 44.6924 5.64598 44.646Z" fill="#CED4DA"/>
<g clip-path="url(#clip0_17_657)">
<path d="M12 20.5C12.1989 20.5 12.3897 20.579 12.5303 20.7197C12.671 20.8603 12.75 21.0511 12.75 21.25V24.25C12.75 24.4489 12.671 24.6397 12.5303 24.7803C12.3897 24.921 12.1989 25 12 25C11.8011 25 11.6103 24.921 11.4697 24.7803C11.329 24.6397 11.25 24.4489 11.25 24.25V21.25C11.25 21.0511 11.329 20.8603 11.4697 20.7197C11.6103 20.579 11.8011 20.5 12 20.5ZM18 32.5C18 34.0913 17.3679 35.6174 16.2426 36.7426C15.1174 37.8679 13.5913 38.5 12 38.5C10.4087 38.5 8.88258 37.8679 7.75736 36.7426C6.63214 35.6174 6 34.0913 6 32.5V23.5C6 21.9087 6.63214 20.3826 7.75736 19.2574C8.88258 18.1321 10.4087 17.5 12 17.5C13.5913 17.5 15.1174 18.1321 16.2426 19.2574C17.3679 20.3826 18 21.9087 18 23.5V32.5ZM12 16C10.0109 16 8.10322 16.7902 6.6967 18.1967C5.29018 19.6032 4.5 21.5109 4.5 23.5V32.5C4.5 34.4891 5.29018 36.3968 6.6967 37.8033C8.10322 39.2098 10.0109 40 12 40C13.9891 40 15.8968 39.2098 17.3033 37.8033C18.7098 36.3968 19.5 34.4891 19.5 32.5V23.5C19.5 21.5109 18.7098 19.6032 17.3033 18.1967C15.8968 16.7902 13.9891 16 12 16V16Z" fill="#CED4DA"/>
</g>
<path fill-rule="evenodd" clip-rule="evenodd" d="M11.646 4.64598C11.6925 4.59941 11.7476 4.56247 11.8084 4.53727C11.8691 4.51206 11.9343 4.49908 12 4.49908C12.0658 4.49908 12.1309 4.51206 12.1917 4.53727C12.2524 4.56247 12.3076 4.59941 12.354 4.64598L18.354 10.646C18.4479 10.7399 18.5007 10.8672 18.5007 11C18.5007 11.1328 18.4479 11.2601 18.354 11.354C18.2601 11.4479 18.1328 11.5006 18 11.5006C17.8672 11.5006 17.7399 11.4479 17.646 11.354L12 5.70698L6.35402 11.354C6.26013 11.4479 6.1328 11.5006 6.00002 11.5006C5.86725 11.5006 5.73991 11.4479 5.64602 11.354C5.55213 11.2601 5.49939 11.1328 5.49939 11C5.49939 10.8672 5.55213 10.7399 5.64602 10.646L11.646 4.64598Z" fill="#CED4DA"/>
</g>
<defs>
<clipPath id="clip0_17_657">
<rect width="24" height="24" fill="white" transform="translate(0 16)"/>
</clipPath>
</defs>
</svg>
