<svg width="24" height="24" viewBox="0 0 24 24" fill="none" xmlns="http://www.w3.org/2000/svg">
<g clip-path="url(#clip0_1_707)">
<path fill-rule="evenodd" clip-rule="evenodd" d="M1.50012 17.25C1.50012 17.4489 1.57914 17.6397 1.71979 17.7803C1.86044 17.921 2.05121 18 2.25012 18H19.9396L15.2191 22.719C15.0783 22.8598 14.9992 23.0508 14.9992 23.25C14.9992 23.4492 15.0783 23.6402 15.2191 23.781C15.36 23.9218 15.551 24.0009 15.7501 24.0009C15.9493 24.0009 16.1403 23.9218 16.2811 23.781L22.2811 17.781C22.351 17.7113 22.4064 17.6286 22.4442 17.5375C22.482 17.4463 22.5015 17.3487 22.5015 17.25C22.5015 17.1514 22.482 17.0537 22.4442 16.9626C22.4064 16.8714 22.351 16.7887 22.2811 16.719L16.2811 10.719C16.1403 10.5782 15.9493 10.4991 15.7501 10.4991C15.551 10.4991 15.36 10.5782 15.2191 10.719C15.0783 10.8598 14.9992 11.0508 14.9992 11.25C14.9992 11.4492 15.0783 11.6402 15.2191 11.781L19.9396 16.5H2.25012C2.05121 16.5 1.86044 16.579 1.71979 16.7197C1.57914 16.8603 1.50012 17.0511 1.50012 17.25ZM22.5001 6.75C22.5001 6.94891 22.4211 7.13968 22.2805 7.28033C22.1398 7.42098 21.949 7.5 21.7501 7.5H4.06062L8.78112 12.219C8.85085 12.2887 8.90617 12.3715 8.94391 12.4626C8.98164 12.5537 9.00107 12.6514 9.00107 12.75C9.00107 12.8486 8.98164 12.9463 8.94391 13.0374C8.90617 13.1285 8.85085 13.2113 8.78112 13.281C8.71139 13.3507 8.6286 13.406 8.5375 13.4438C8.44639 13.4815 8.34874 13.5009 8.25012 13.5009C8.1515 13.5009 8.05385 13.4815 7.96274 13.4438C7.87164 13.406 7.78885 13.3507 7.71912 13.281L1.71912 7.281C1.64928 7.21133 1.59386 7.12857 1.55605 7.03745C1.51824 6.94633 1.49878 6.84865 1.49878 6.75C1.49878 6.65135 1.51824 6.55367 1.55605 6.46255C1.59386 6.37143 1.64928 6.28867 1.71912 6.219L7.71912 0.219001C7.85995 0.0781714 8.05096 -0.000946045 8.25012 -0.000946045C8.44928 -0.000946045 8.64029 0.0781714 8.78112 0.219001C8.92195 0.359831 9.00107 0.550838 9.00107 0.750001C9.00107 0.949165 8.92195 1.14017 8.78112 1.281L4.06062 6H21.7501C21.949 6 22.1398 6.07902 22.2805 6.21967C22.4211 6.36032 22.5001 6.55109 22.5001 6.75Z" fill="#212529"/>
</g>
<defs>
<clipPath id="clip0_1_707">
<rect width="24" height="24" fill="white"/>
</clipPath>
</defs>
</svg>
